<svg width="760" height="180" viewBox="0 0 760 180" xmlns="http://www.w3.org/2000/svg" role="img">
  <title>KabulLearn Logo</title>
  <desc>KabulLearn horizontal logo with an open book icon and Learn Without Limits tagline.</desc>
  <rect x="10" y="10" width="160" height="160" rx="36" fill="#0057FF"/>
  <g transform="translate(10 10) scale(0.4)">
    <path d="M84 112c46-14 86-6 116 24v172c-30-30-70-38-116-24Z" fill="#FFFFFF" opacity="0.22"/>
    <path d="M200 136c30-30 70-38 116-24v172c-46-14-86-6-116 24Z" fill="#FFFFFF" opacity="0.22"/>
    <path d="M84 112c46-14 86-6 116 24v172c-30-30-70-38-116-24Z" fill="none" stroke="#FFFFFF" stroke-width="22" stroke-linejoin="round"/>
    <path d="M200 136c30-30 70-38 116-24v172c-46-14-86-6-116 24Z" fill="none" stroke="#FFFFFF" stroke-width="22" stroke-linejoin="round"/>
    <path d="M200 136v172" stroke="#FFFFFF" stroke-width="18" stroke-linecap="round"/>
    <path d="M122 164c28-3 54 4 78 22" stroke="#FFFFFF" stroke-width="12" stroke-linecap="round" opacity="0.65"/>
    <path d="M122 212c28-3 54 4 78 22" stroke="#FFFFFF" stroke-width="12" stroke-linecap="round" opacity="0.65"/>
    <path d="M238 186c24-18 50-25 78-22" stroke="#FFFFFF" stroke-width="12" stroke-linecap="round" opacity="0.65"/>
    <path d="M238 234c24-18 50-25 78-22" stroke="#FFFFFF" stroke-width="12" stroke-linecap="round" opacity="0.65"/>
  </g>
  <text
    x="198"
    y="108"
    font-family="Manrope, Arial, Helvetica, sans-serif"
    font-weight="800"
    font-size="70"
    letter-spacing="-2.8"
    fill="#ECE8FF"
  >Kabul<tspan fill="#4D84FF">Learn</tspan></text>
  <text
    x="202"
    y="142"
    font-family="Manrope, Arial, Helvetica, sans-serif"
    font-weight="500"
    font-size="16"
    letter-spacing="4"
    fill="#8A87AA"
  >LEARN WITHOUT LIMITS</text>
</svg>
