<svg width="400" height="400" viewBox="0 0 400 400" xmlns="http://www.w3.org/2000/svg" role="img">
  <title>KabulLearn Icon</title>
  <desc>KabulLearn education platform icon with an open book motif on a blue rounded square.</desc>
  <rect width="400" height="400" rx="92" fill="#0057FF"/>
  <path d="M84 112c46-14 86-6 116 24v172c-30-30-70-38-116-24Z" fill="#FFFFFF" opacity="0.22"/>
  <path d="M200 136c30-30 70-38 116-24v172c-46-14-86-6-116 24Z" fill="#FFFFFF" opacity="0.22"/>
  <path d="M84 112c46-14 86-6 116 24v172c-30-30-70-38-116-24Z" fill="none" stroke="#FFFFFF" stroke-width="22" stroke-linejoin="round"/>
  <path d="M200 136c30-30 70-38 116-24v172c-46-14-86-6-116 24Z" fill="none" stroke="#FFFFFF" stroke-width="22" stroke-linejoin="round"/>
  <path d="M200 136v172" stroke="#FFFFFF" stroke-width="18" stroke-linecap="round"/>
  <path d="M122 164c28-3 54 4 78 22" stroke="#FFFFFF" stroke-width="12" stroke-linecap="round" opacity="0.65"/>
  <path d="M122 212c28-3 54 4 78 22" stroke="#FFFFFF" stroke-width="12" stroke-linecap="round" opacity="0.65"/>
  <path d="M238 186c24-18 50-25 78-22" stroke="#FFFFFF" stroke-width="12" stroke-linecap="round" opacity="0.65"/>
  <path d="M238 234c24-18 50-25 78-22" stroke="#FFFFFF" stroke-width="12" stroke-linecap="round" opacity="0.65"/>
</svg>
